<?xml version="1.0" encoding="utf-8"?>
<svg version="1.1" xmlns:xlink="http://www.w3.org/1999/xlink" width="90px" height="10px" preserveAspectRatio="xMinYMid meet" viewBox="655 289  90 8" xmlns="http://www.w3.org/2000/svg">
  <path d="M 656 293.5  L 735 293.5  A 5 5 0 0 0 740.5 288.5 L 740.5 285  A 5 5 0 0 0 735.5 280.5 L 731 280.5  A 5 5 0 0 0 726.5 285 L 726.5 290  A 3 3 0 0 1 729.5 293 A 3 3 0 0 1 726.5 296 L 726.5 299  " stroke-width="1" stroke="#ff3399" fill="none" />
  <path d="M 658 290.5  A 3 3 0 0 0 655 293.5 A 3 3 0 0 0 658 296.5 A 3 3 0 0 0 661 293.5 A 3 3 0 0 0 658 290.5 Z " fill-rule="nonzero" fill="#ff3399" stroke="none" />
</svg>