<?xml version="1.0" encoding="utf-8"?>
<svg version="1.1" xmlns:xlink="http://www.w3.org/1999/xlink" width="18px" height="18px" preserveAspectRatio="xMinYMid meet" viewBox="987 425  18 16" xmlns="http://www.w3.org/2000/svg">
  <path d="M 994 433.5  L 1073 433.5  A 5 5 0 0 0 1078.5 428.5 L 1078.5 423  A 3 3 0 0 1 1081.5 420.5 A 3 3 0 0 1 1084.5 423.5 L 1084.5 439  " stroke-width="1" stroke="#ff3399" fill="none" />
  <path d="M 996 430.5  A 3 3 0 0 0 993 433.5 A 3 3 0 0 0 996 436.5 A 3 3 0 0 0 999 433.5 A 3 3 0 0 0 996 430.5 Z " fill-rule="nonzero" fill="#ff3399" stroke="none" />
</svg>