<?xml version="1.0" encoding="utf-8"?>
<svg version="1.1" xmlns:xlink="http://www.w3.org/1999/xlink" width="10px" height="23px" preserveAspectRatio="xMidYMin meet" viewBox="1480 282  8 23" xmlns="http://www.w3.org/2000/svg">
  <path d="M 1400 300.5  L 1479 300.5  A 5 5 0 0 0 1484.5 295.5 L 1484.5 292  A 5 5 0 0 0 1479.5 287.5 L 1455 287.5  A 5 5 0 0 0 1450.5 292 L 1450.5 297  A 3 3 0 0 1 1453.5 300 A 3 3 0 0 1 1450.5 303 L 1450.5 306  " stroke-width="1" stroke="#ff3399" fill="none" />
  <path d="M 1402 297.5  A 3 3 0 0 0 1399 300.5 A 3 3 0 0 0 1402 303.5 A 3 3 0 0 0 1405 300.5 A 3 3 0 0 0 1402 297.5 Z " fill-rule="nonzero" fill="#ff3399" stroke="none" />
</svg>