<?xml version="1.0" encoding="utf-8"?>
<svg version="1.1" xmlns:xlink="http://www.w3.org/1999/xlink" width="13px" height="13px" viewBox="425 854  13 13" xmlns="http://www.w3.org/2000/svg">
  <path d="M 431.5 854  C 435.14 854  438 856.86  438 860.5  C 438 864.14  435.14 867  431.5 867  C 427.86 867  425 864.14  425 860.5  C 425 856.86  427.86 854  431.5 854  Z " fill-rule="nonzero" fill="#ffffff" stroke="none" />
  <path d="M 431.5 854.5  C 434.86 854.5  437.5 857.14  437.5 860.5  C 437.5 863.86  434.86 866.5  431.5 866.5  C 428.14 866.5  425.5 863.86  425.5 860.5  C 425.5 857.14  428.14 854.5  431.5 854.5  Z " stroke-width="1" stroke="#797979" fill="none" />
  <path d="M 431.5 863.75  C 429.68 863.75  428.25 862.32  428.25 860.5  C 428.25 858.68  429.68 857.25  431.5 857.25  C 433.32 857.25  434.75 858.68  434.75 860.5  C 434.75 862.32  433.32 863.75  431.5 863.75  " fill-rule="nonzero" fill="#797979" stroke="none" />
</svg>