<?xml version="1.0" encoding="utf-8"?>
<svg version="1.1" xmlns:xlink="http://www.w3.org/1999/xlink" width="10px" height="23px" preserveAspectRatio="xMidYMin meet" viewBox="1423 254  8 23" xmlns="http://www.w3.org/2000/svg">
  <path d="M 1343 272.5  L 1422 272.5  A 5 5 0 0 0 1427.5 267.5 L 1427.5 262  A 3 3 0 0 1 1430.5 259.5 A 3 3 0 0 1 1433.5 262.5 L 1433.5 278  " stroke-width="1" stroke="#ff3399" fill="none" />
  <path d="M 1345 269.5  A 3 3 0 0 0 1342 272.5 A 3 3 0 0 0 1345 275.5 A 3 3 0 0 0 1348 272.5 A 3 3 0 0 0 1345 269.5 Z " fill-rule="nonzero" fill="#ff3399" stroke="none" />
</svg>