<?xml version="1.0" encoding="utf-8"?>
<svg version="1.1" xmlns:xlink="http://www.w3.org/1999/xlink" width="18px" height="18px" preserveAspectRatio="xMinYMid meet" viewBox="747 1083  18 16" xmlns="http://www.w3.org/2000/svg">
  <path d="M 754 1091.5  L 833 1091.5  A 5 5 0 0 0 838.5 1086.5 L 838.5 1083  A 5 5 0 0 0 833.5 1078.5 L 813 1078.5  A 5 5 0 0 0 808.5 1083 L 808.5 1088  A 3 3 0 0 1 811.5 1091 A 3 3 0 0 1 808.5 1094 L 808.5 1097  " stroke-width="1" stroke="#ff3399" fill="none" />
  <path d="M 756 1088.5  A 3 3 0 0 0 753 1091.5 A 3 3 0 0 0 756 1094.5 A 3 3 0 0 0 759 1091.5 A 3 3 0 0 0 756 1088.5 Z " fill-rule="nonzero" fill="#ff3399" stroke="none" />
</svg>