<?xml version="1.0" encoding="utf-8"?>
<svg version="1.1" xmlns:xlink="http://www.w3.org/1999/xlink" width="13px" height="13px" viewBox="337 1382  13 13" xmlns="http://www.w3.org/2000/svg">
  <path d="M 343.5 1382  C 347.14 1382  350 1384.86  350 1388.5  C 350 1392.14  347.14 1395  343.5 1395  C 339.86 1395  337 1392.14  337 1388.5  C 337 1384.86  339.86 1382  343.5 1382  Z " fill-rule="nonzero" fill="#f0f0f0" stroke="none" />
  <path d="M 343.5 1382.5  C 346.86 1382.5  349.5 1385.14  349.5 1388.5  C 349.5 1391.86  346.86 1394.5  343.5 1394.5  C 340.14 1394.5  337.5 1391.86  337.5 1388.5  C 337.5 1385.14  340.14 1382.5  343.5 1382.5  Z " stroke-width="1" stroke="#797979" fill="none" />
  <path d="M 343.5 1391.75  C 341.68 1391.75  340.25 1390.32  340.25 1388.5  C 340.25 1386.68  341.68 1385.25  343.5 1385.25  C 345.32 1385.25  346.75 1386.68  346.75 1388.5  C 346.75 1390.32  345.32 1391.75  343.5 1391.75  " fill-rule="nonzero" fill="#797979" stroke="none" />
</svg>