<?xml version="1.0" encoding="utf-8"?>
<svg version="1.1" xmlns:xlink="http://www.w3.org/1999/xlink" width="13px" height="13px" viewBox="436 1096  13 13" xmlns="http://www.w3.org/2000/svg">
  <path d="M 442.5 1096  C 446.14 1096  449 1098.86  449 1102.5  C 449 1106.14  446.14 1109  442.5 1109  C 438.86 1109  436 1106.14  436 1102.5  C 436 1098.86  438.86 1096  442.5 1096  Z " fill-rule="nonzero" fill="#f0f0f0" stroke="none" />
  <path d="M 442.5 1096.5  C 445.86 1096.5  448.5 1099.14  448.5 1102.5  C 448.5 1105.86  445.86 1108.5  442.5 1108.5  C 439.14 1108.5  436.5 1105.86  436.5 1102.5  C 436.5 1099.14  439.14 1096.5  442.5 1096.5  Z " stroke-width="1" stroke="#797979" fill="none" />
  <path d="M 442.5 1105.75  C 440.68 1105.75  439.25 1104.32  439.25 1102.5  C 439.25 1100.68  440.68 1099.25  442.5 1099.25  C 444.32 1099.25  445.75 1100.68  445.75 1102.5  C 445.75 1104.32  444.32 1105.75  442.5 1105.75  " fill-rule="nonzero" fill="#797979" stroke="none" />
</svg>