<?xml version="1.0" encoding="utf-8"?>
<svg version="1.1" xmlns:xlink="http://www.w3.org/1999/xlink" width="32px" height="30px" xmlns="http://www.w3.org/2000/svg">
  <g transform="matrix(1 0 0 1 -2018 -973 )">
    <path d="M 8.163461538461538 22.630208333333332  C 8.64423076923077 23.06423611111111  8.884615384615385 23.58796296296296  8.884615384615385 24.20138888888889  C 8.884615384615385 24.814814814814813  8.64423076923077 25.338541666666668  8.163461538461538 25.772569444444443  C 7.6826923076923075 26.20659722222222  7.102564102564103 26.42361111111111  6.423076923076923 26.42361111111111  C 5.756410256410257 26.42361111111111  5.179487179487181 26.203703703703702  4.6923076923076925 25.76388888888889  C 4.205128205128205 25.324074074074076  3.9615384615384617 24.80324074074074  3.9615384615384617 24.20138888888889  C 3.9615384615384617 23.58796296296296  4.201923076923077 23.06423611111111  4.6826923076923075 22.630208333333332  C 5.163461538461538 22.196180555555554  5.743589743589744 21.979166666666664  6.423076923076923 21.979166666666664  C 7.102564102564103 21.979166666666664  7.6826923076923075 22.196180555555554  8.163461538461538 22.630208333333332  Z M 17.740384615384617 26.20659722222222  C 18.221153846153847 26.640625  18.46153846153846 27.164351851851855  18.46153846153846 27.77777777777778  C 18.46153846153846 28.391203703703702  18.221153846153847 28.914930555555554  17.740384615384617 29.348958333333336  C 17.259615384615383 29.78298611111111  16.67948717948718 30  16 30  C 15.320512820512821 30  14.740384615384617 29.78298611111111  14.259615384615385 29.348958333333336  C 13.778846153846153 28.914930555555554  13.538461538461538 28.391203703703702  13.538461538461538 27.77777777777778  C 13.538461538461538 27.164351851851855  13.778846153846153 26.640625  14.259615384615385 26.20659722222222  C 14.740384615384617 25.772569444444443  15.320512820512821 25.555555555555557  16 25.555555555555557  C 16.67948717948718 25.555555555555557  17.259615384615383 25.772569444444443  17.740384615384617 26.20659722222222  Z M 4.201923076923077 13.984375000000002  C 4.6826923076923075 14.418402777777779  4.923076923076923 14.94212962962963  4.923076923076923 15.555555555555557  C 4.923076923076923 16.16898148148148  4.6826923076923075 16.692708333333336  4.201923076923077 17.12673611111111  C 3.7211538461538463 17.56076388888889  3.1410256410256414 17.77777777777778  2.4615384615384617 17.77777777777778  C 1.7820512820512824 17.77777777777778  1.2019230769230769 17.56076388888889  0.7211538461538461 17.12673611111111  C 0.2403846153846154 16.692708333333336  0 16.16898148148148  0 15.555555555555557  C 0 14.94212962962963  0.2403846153846154 14.418402777777779  0.7211538461538461 13.984375000000002  C 1.2019230769230769 13.550347222222221  1.7820512820512824 13.333333333333332  2.4615384615384617 13.333333333333332  C 3.1410256410256414 13.333333333333332  3.7211538461538463 13.550347222222221  4.201923076923077 13.984375000000002  Z M 27.317307692307693 22.630208333333332  C 27.798076923076923 23.06423611111111  28.03846153846154 23.58796296296296  28.03846153846154 24.20138888888889  C 28.03846153846154 24.80324074074074  27.7948717948718 25.324074074074076  27.307692307692307 25.76388888888889  C 26.82051282051282 26.203703703703702  26.243589743589745 26.42361111111111  25.576923076923077 26.42361111111111  C 24.897435897435898 26.42361111111111  24.317307692307693 26.20659722222222  23.83653846153846 25.772569444444443  C 23.35576923076923 25.338541666666668  23.115384615384617 24.814814814814813  23.115384615384617 24.20138888888889  C 23.115384615384617 23.58796296296296  23.35576923076923 23.06423611111111  23.83653846153846 22.630208333333332  C 24.317307692307693 22.196180555555554  24.897435897435898 21.979166666666664  25.576923076923077 21.979166666666664  C 26.25641025641026 21.979166666666664  26.83653846153846 22.196180555555554  27.317307692307693 22.630208333333332  Z M 8.596153846153847 4.947916666666668  C 9.198717948717949 5.491898148148145  9.5 6.145833333333335  9.5 6.909722222222222  C 9.5 7.6736111111111125  9.198717948717949 8.327546296296292  8.596153846153847 8.871527777777777  C 7.993589743589744 9.415509259259258  7.269230769230769 9.687499999999998  6.423076923076923 9.687499999999998  C 5.576923076923077 9.687499999999998  4.852564102564103 9.415509259259258  4.25 8.871527777777777  C 3.647435897435898 8.327546296296292  3.3461538461538463 7.6736111111111125  3.3461538461538463 6.909722222222222  C 3.3461538461538463 6.145833333333335  3.647435897435898 5.491898148148145  4.25 4.947916666666668  C 4.852564102564103 4.4039351851851825  5.576923076923077 4.1319444444444455  6.423076923076923 4.1319444444444455  C 7.269230769230769 4.1319444444444455  7.993589743589744 4.4039351851851825  8.596153846153847 4.947916666666668  Z M 31.278846153846153 13.984375000000002  C 31.75961538461539 14.418402777777779  32.00000000000001 14.94212962962963  32 15.555555555555557  C 32.00000000000001 16.16898148148148  31.75961538461539 16.692708333333336  31.278846153846153 17.12673611111111  C 30.798076923076927 17.56076388888889  30.217948717948723 17.77777777777778  29.53846153846154 17.77777777777778  C 28.85897435897436 17.77777777777778  28.278846153846153 17.56076388888889  27.798076923076923 17.12673611111111  C 27.317307692307693 16.692708333333336  27.076923076923077 16.16898148148148  27.076923076923077 15.555555555555557  C 27.076923076923077 14.94212962962963  27.317307692307693 14.418402777777779  27.798076923076923 13.984375000000002  C 28.278846153846153 13.550347222222221  28.85897435897436 13.333333333333332  29.53846153846154 13.333333333333332  C 30.217948717948723 13.333333333333332  30.798076923076927 13.550347222222221  31.278846153846153 13.984375000000002  Z M 18.615384615384617 0.9722222222222232  C 19.333333333333336 1.6203703703703676  19.692307692307693 2.4074074074074048  19.692307692307693 3.333333333333335  C 19.692307692307693 4.259259259259258  19.333333333333336 5.046296296296292  18.615384615384617 5.694444444444443  C 17.897435897435898 6.342592592592591  17.025641025641026 6.666666666666666  16 6.666666666666666  C 14.974358974358976 6.666666666666666  14.102564102564106 6.342592592592591  13.384615384615385 5.694444444444443  C 12.666666666666668 5.046296296296292  12.307692307692308 4.259259259259258  12.307692307692308 3.333333333333335  C 12.307692307692308 2.4074074074074048  12.666666666666668 1.6203703703703676  13.384615384615385 0.9722222222222232  C 14.102564102564106 0.3240740740740755  14.974358974358976 0  16 0  C 17.025641025641026 0  17.897435897435898 0.3240740740740755  18.615384615384617 0.9722222222222232  Z M 28.615384615384617 4.166666666666665  C 29.46153846153846 4.930555555555555  29.884615384615383 5.844907407407406  29.884615384615383 6.909722222222222  C 29.884615384615383 7.986111111111112  29.46153846153846 8.90335648148148  28.615384615384617 9.661458333333336  C 27.76923076923077 10.419560185185183  26.75641025641026 10.79861111111111  25.576923076923077 10.79861111111111  C 24.384615384615383 10.79861111111111  23.368589743589745 10.419560185185183  22.528846153846153 9.661458333333336  C 21.689102564102566 8.90335648148148  21.26923076923077 7.986111111111112  21.26923076923077 6.909722222222222  C 21.26923076923077 5.844907407407406  21.689102564102566 4.930555555555555  22.528846153846153 4.166666666666665  C 23.368589743589745 3.4027777777777777  24.384615384615383 3.0208333333333326  25.576923076923077 3.0208333333333326  C 26.75641025641026 3.0208333333333326  27.76923076923077 3.4027777777777777  28.615384615384617 4.166666666666665  Z " fill-rule="nonzero" fill="#000000" stroke="none" transform="matrix(1 0 0 1 2018 973 )" />
  </g>
</svg>