<?xml version="1.0" encoding="utf-8"?>
<svg version="1.1" xmlns:xlink="http://www.w3.org/1999/xlink" width="13px" height="13px" viewBox="1832 802  13 13" xmlns="http://www.w3.org/2000/svg">
  <path d="M 1838.5 802  C 1842.14 802  1845 804.86  1845 808.5  C 1845 812.14  1842.14 815  1838.5 815  C 1834.86 815  1832 812.14  1832 808.5  C 1832 804.86  1834.86 802  1838.5 802  Z " fill-rule="nonzero" fill="#f0f0f0" stroke="none" />
  <path d="M 1838.5 802.5  C 1841.86 802.5  1844.5 805.14  1844.5 808.5  C 1844.5 811.86  1841.86 814.5  1838.5 814.5  C 1835.14 814.5  1832.5 811.86  1832.5 808.5  C 1832.5 805.14  1835.14 802.5  1838.5 802.5  Z " stroke-width="1" stroke="#797979" fill="none" />
  <path d="M 1838.5 811.75  C 1836.68 811.75  1835.25 810.32  1835.25 808.5  C 1835.25 806.68  1836.68 805.25  1838.5 805.25  C 1840.32 805.25  1841.75 806.68  1841.75 808.5  C 1841.75 810.32  1840.32 811.75  1838.5 811.75  " fill-rule="nonzero" fill="#797979" stroke="none" />
</svg>