<?xml version="1.0" encoding="utf-8"?>
<svg version="1.1" xmlns:xlink="http://www.w3.org/1999/xlink" width="10px" height="24px" preserveAspectRatio="xMidYMin meet" viewBox="1510 850  8 24" xmlns="http://www.w3.org/2000/svg">
  <path d="M 620 842.5  L 1513 842.5  A 5 5 0 0 1 1518.5 847.5 L 1518.5 853  A 2 2 0 0 1 1516.5 855.5 A 2 2 0 0 0 1514.5 857.5 L 1514.5 874  " stroke-width="1" stroke="#ff3399" fill="none" />
  <path d="M 622 839.5  A 3 3 0 0 0 619 842.5 A 3 3 0 0 0 622 845.5 A 3 3 0 0 0 625 842.5 A 3 3 0 0 0 622 839.5 Z " fill-rule="nonzero" fill="#ff3399" stroke="none" />
</svg>