<?xml version="1.0" encoding="utf-8"?>
<svg version="1.1" xmlns:xlink="http://www.w3.org/1999/xlink" width="14px" height="14px" xmlns="http://www.w3.org/2000/svg">
  <g transform="matrix(1 0 0 1 -3358 -4622 )">
    <path d="M 3365 4623  C 3368.36 4623  3371 4625.64  3371 4629  C 3371 4632.36  3368.36 4635  3365 4635  C 3361.64 4635  3359 4632.36  3359 4629  C 3359 4625.64  3361.64 4623  3365 4623  Z " fill-rule="nonzero" fill="#1890ff" stroke="none" />
    <path d="M 3365 4623  C 3368.36 4623  3371 4625.64  3371 4629  C 3371 4632.36  3368.36 4635  3365 4635  C 3361.64 4635  3359 4632.36  3359 4629  C 3359 4625.64  3361.64 4623  3365 4623  Z " stroke-width="2" stroke="#ffffff" fill="none" />
  </g>
</svg>