<?xml version="1.0" encoding="utf-8"?>
<svg version="1.1" xmlns:xlink="http://www.w3.org/1999/xlink" width="10px" height="10px" xmlns="http://www.w3.org/2000/svg">
  <g transform="matrix(1 0 0 1 -3033 -4625 )">
    <path d="M 3038 4626  C 3040.24 4626  3042 4627.76  3042 4630  C 3042 4632.24  3040.24 4634  3038 4634  C 3035.76 4634  3034 4632.24  3034 4630  C 3034 4627.76  3035.76 4626  3038 4626  Z " fill-rule="nonzero" fill="#1890ff" stroke="none" />
    <path d="M 3038 4626  C 3040.24 4626  3042 4627.76  3042 4630  C 3042 4632.24  3040.24 4634  3038 4634  C 3035.76 4634  3034 4632.24  3034 4630  C 3034 4627.76  3035.76 4626  3038 4626  Z " stroke-width="2" stroke="#ffffff" fill="none" />
  </g>
</svg>