<?xml version="1.0" encoding="utf-8"?>
<svg version="1.1" xmlns:xlink="http://www.w3.org/1999/xlink" width="1073px" height="293px" xmlns="http://www.w3.org/2000/svg">
  <g transform="matrix(1 0 0 1 -2979 -5142 )">
    <path d="M 0.5 0  L 0.5 290.6502311248072  C 0 291.40610169491487  0.665587958607724 292  1.5126999059266244 292.5  L 1070.4873000940734 292.5  C 1071.3344120413924 292  1072 291.40610169491487  1072.5 290.6502311248072  L 1072.5 0  L 0.5 0  Z " fill-rule="nonzero" fill="#ffffff" stroke="none" transform="matrix(1 0 0 1 2979 5142 )" />
    <path d="M 0.5 0  L 0.5 290.6502311248072  C 0 291.40610169491487  0.665587958607724 292  1.5126999059266244 292.5  L 1070.4873000940734 292.5  C 1071.3344120413924 292  1072 291.40610169491487  1072.5 290.6502311248072  L 1072.5 0  " stroke-width="1" stroke="#e9e9e9" fill="none" transform="matrix(1 0 0 1 2979 5142 )" />
  </g>
</svg>