<?xml version="1.0" encoding="utf-8"?>
<svg version="1.1" xmlns:xlink="http://www.w3.org/1999/xlink" width="10px" height="24px" preserveAspectRatio="xMidYMin meet" viewBox="1574 171  8 24" xmlns="http://www.w3.org/2000/svg">
  <path d="M 1473.5 233  L 1473.5 167  A 5 5 0 0 1 1478.5 162.5 L 1607 162.5  A 5 5 0 0 1 1612.5 167.5 L 1612.5 171  A 5 5 0 0 1 1607.5 176.5 L 1583 176.5  A 5 5 0 0 0 1578.5 181.5 L 1578.5 195  " stroke-width="1" stroke="#ff3399" fill="none" />
  <path d="M 1473.5 228  A 3 3 0 0 0 1470.5 231 A 3 3 0 0 0 1473.5 234 A 3 3 0 0 0 1476.5 231 A 3 3 0 0 0 1473.5 228 Z " fill-rule="nonzero" fill="#ff3399" stroke="none" />
</svg>