<?xml version="1.0" encoding="utf-8"?>
<svg version="1.1" xmlns:xlink="http://www.w3.org/1999/xlink" width="10px" height="24px" preserveAspectRatio="xMidYMin meet" viewBox="950 473  8 24" xmlns="http://www.w3.org/2000/svg">
  <path d="M 884 491.5  L 963 491.5  A 5 5 0 0 0 968.5 486.5 L 968.5 483  A 5 5 0 0 0 963.5 478.5 L 959 478.5  A 5 5 0 0 0 954.5 483 L 954.5 488  A 3 3 0 0 1 957.5 491 A 3 3 0 0 1 954.5 494 L 954.5 497  " stroke-width="1" stroke="#ff3399" fill="none" />
  <path d="M 886 488.5  A 3 3 0 0 0 883 491.5 A 3 3 0 0 0 886 494.5 A 3 3 0 0 0 889 491.5 A 3 3 0 0 0 886 488.5 Z " fill-rule="nonzero" fill="#ff3399" stroke="none" />
</svg>