<?xml version="1.0" encoding="utf-8"?>
<svg version="1.1" xmlns:xlink="http://www.w3.org/1999/xlink" width="10px" height="23px" preserveAspectRatio="xMidYMin meet" viewBox="1017 402  8 23" xmlns="http://www.w3.org/2000/svg">
  <path d="M 937 420.5  L 1016 420.5  A 5 5 0 0 0 1021.5 415.5 L 1021.5 409  A 2 2 0 0 0 1019.5 407.5 A 2 2 0 0 0 1017.5 409 L 1017.5 417  A 3 3 0 0 1 1020.5 420 A 3 3 0 0 1 1017.5 423 L 1017.5 426  " stroke-width="1" stroke="#ff3399" fill="none" />
  <path d="M 939 417.5  A 3 3 0 0 0 936 420.5 A 3 3 0 0 0 939 423.5 A 3 3 0 0 0 942 420.5 A 3 3 0 0 0 939 417.5 Z " fill-rule="nonzero" fill="#ff3399" stroke="none" />
</svg>