<?xml version="1.0" encoding="utf-8"?>
<svg version="1.1" xmlns:xlink="http://www.w3.org/1999/xlink" width="13px" height="13px" viewBox="326 1096  13 13" xmlns="http://www.w3.org/2000/svg">
  <path d="M 332.5 1096  C 336.14 1096  339 1098.86  339 1102.5  C 339 1106.14  336.14 1109  332.5 1109  C 328.86 1109  326 1106.14  326 1102.5  C 326 1098.86  328.86 1096  332.5 1096  Z " fill-rule="nonzero" fill="#ffffff" stroke="none" />
  <path d="M 332.5 1096.5  C 335.86 1096.5  338.5 1099.14  338.5 1102.5  C 338.5 1105.86  335.86 1108.5  332.5 1108.5  C 329.14 1108.5  326.5 1105.86  326.5 1102.5  C 326.5 1099.14  329.14 1096.5  332.5 1096.5  Z " stroke-width="1" stroke="#797979" fill="none" />
  <path d="M 332.5 1105.75  C 330.68 1105.75  329.25 1104.32  329.25 1102.5  C 329.25 1100.68  330.68 1099.25  332.5 1099.25  C 334.32 1099.25  335.75 1100.68  335.75 1102.5  C 335.75 1104.32  334.32 1105.75  332.5 1105.75  " fill-rule="nonzero" fill="#797979" stroke="none" />
</svg>