<?xml version="1.0" encoding="utf-8"?>
<svg version="1.1" xmlns:xlink="http://www.w3.org/1999/xlink" width="26px" height="20px" xmlns="http://www.w3.org/2000/svg">
  <g transform="matrix(1 0 0 1 -805 -1496 )">
    <path d="M 25.387205387205388 14.949494949494948  C 25.795735129068465 15.263748597081928  26 15.645342312008976  26 16.094276094276093  C 26 16.543209876543212  25.795735129068465 16.92480359147026  25.387205387205388 17.23905723905724  L 22.41077441077441 19.52861952861953  C 22.002244668911338 19.84287317620651  21.506172839506174 20  20.922558922558924 20  C 20.338945005611674 20  19.84287317620651 19.84287317620651  19.434343434343436 19.52861952861953  L 13 14.579124579124581  L 6.565656565656566 19.52861952861953  C 6.157126823793491 19.84287317620651  5.661054994388328 20  5.077441077441078 20  C 4.493827160493828 20  3.997755331088665 19.84287317620651  3.5892255892255895 19.52861952861953  L 0.6127946127946128 17.23905723905724  C 0.2042648709315378 16.92480359147026  0 16.543209876543212  0 16.094276094276093  C 0 15.645342312008976  0.2042648709315378 15.263748597081928  0.6127946127946128 14.949494949494948  L 7.047138047138047 10  L 0.6127946127946128 5.05050505050505  C 0.2042648709315378 4.736251402918068  0 4.354657687991022  0 3.9057239057239057  C 0 3.45679012345679  0.2042648709315378 3.075196408529739  0.6127946127946128 2.7609427609427617  L 3.5892255892255895 0.47138047138047146  C 3.997755331088665 0.15712682379348974  4.493827160493828 0  5.077441077441078 0  C 5.661054994388328 0  6.157126823793491 0.15712682379348974  6.565656565656566 0.47138047138047146  L 13 5.420875420875422  L 19.434343434343436 0.47138047138047146  C 19.84287317620651 0.15712682379348974  20.338945005611674 0  20.922558922558924 0  C 21.506172839506174 0  22.002244668911338 0.15712682379348974  22.41077441077441 0.47138047138047146  L 25.387205387205388 2.7609427609427617  C 25.795735129068465 3.075196408529739  26 3.45679012345679  26 3.9057239057239057  C 26 4.354657687991022  25.795735129068465 4.736251402918068  25.387205387205388 5.05050505050505  L 18.95286195286195 10  L 25.387205387205388 14.949494949494948  Z " fill-rule="nonzero" fill="#000000" stroke="none" transform="matrix(1 0 0 1 805 1496 )" />
  </g>
</svg>