<?xml version="1.0" encoding="utf-8"?>
<svg version="1.1" xmlns:xlink="http://www.w3.org/1999/xlink" width="20px" height="12px" xmlns="http://www.w3.org/2000/svg">
  <defs>
    <mask fill="white" id="clip31">
      <path d="M 20 2.4000000000000004  L 17.64166666666667 0.13600000000000137  L 10 7.472  L 2.3583333333333334 0.13600000000000137  L 0 2.4000000000000004  L 10 12  L 20 2.4000000000000004  Z " fill-rule="evenodd" />
    </mask>
  </defs>
  <g transform="matrix(1 0 0 1 -830 -1278 )">
    <path d="M 20 2.4000000000000004  L 17.64166666666667 0.13600000000000137  L 10 7.472  L 2.3583333333333334 0.13600000000000137  L 0 2.4000000000000004  L 10 12  L 20 2.4000000000000004  Z " fill-rule="nonzero" fill="#ffffff" stroke="none" transform="matrix(1 0 0 1 830 1278 )" />
    <path d="M 20 2.4000000000000004  L 17.64166666666667 0.13600000000000137  L 10 7.472  L 2.3583333333333334 0.13600000000000137  L 0 2.4000000000000004  L 10 12  L 20 2.4000000000000004  Z " stroke-width="2" stroke="#464c5b" fill="none" transform="matrix(1 0 0 1 830 1278 )" mask="url(#clip31)" />
  </g>
</svg>