<?xml version="1.0" encoding="utf-8"?>
<svg version="1.1" xmlns:xlink="http://www.w3.org/1999/xlink" width="30px" height="30px" xmlns="http://www.w3.org/2000/svg">
  <g transform="matrix(1 0 0 1 -1024 -1268 )">
    <path d="M 1039 1269  C 1046.84 1269  1053 1275.16  1053 1283  C 1053 1290.84  1046.84 1297  1039 1297  C 1031.16 1297  1025 1290.84  1025 1283  C 1025 1275.16  1031.16 1269  1039 1269  Z " fill-rule="nonzero" fill="#ffffff" stroke="none" />
    <path d="M 1039 1269  C 1046.84 1269  1053 1275.16  1053 1283  C 1053 1290.84  1046.84 1297  1039 1297  C 1031.16 1297  1025 1290.84  1025 1283  C 1025 1275.16  1031.16 1269  1039 1269  Z " stroke-width="2" stroke="#e4e4e4" fill="none" />
  </g>
</svg>