<?xml version="1.0" encoding="utf-8"?>
<svg version="1.1" xmlns:xlink="http://www.w3.org/1999/xlink" width="18px" height="18px" preserveAspectRatio="xMinYMid meet" viewBox="1268 389  18 16" xmlns="http://www.w3.org/2000/svg">
  <path d="M 1275 397.5  L 1354 397.5  A 5 5 0 0 0 1359.5 392.5 L 1359.5 389  A 5 5 0 0 1 1364.5 384.5 L 1901 384.5  A 5 5 0 0 1 1906.5 389.5 L 1906.5 414  " stroke-width="1" stroke="#ff3399" fill="none" />
  <path d="M 1277 394.5  A 3 3 0 0 0 1274 397.5 A 3 3 0 0 0 1277 400.5 A 3 3 0 0 0 1280 397.5 A 3 3 0 0 0 1277 394.5 Z " fill-rule="nonzero" fill="#ff3399" stroke="none" />
</svg>