<?xml version="1.0" encoding="utf-8"?>
<svg version="1.1" xmlns:xlink="http://www.w3.org/1999/xlink" width="90px" height="10px" preserveAspectRatio="xMinYMid meet" viewBox="379 2008  90 8" xmlns="http://www.w3.org/2000/svg">
  <path d="M 380 2012.5  L 459 2012.5  A 5 5 0 0 0 464.5 2007.5 L 464.5 2004  A 5 5 0 0 1 469.5 1999.5 L 684 1999.5  A 5 5 0 0 1 689.5 2004.5 L 689.5 2019  " stroke-width="1" stroke="#ff3399" fill="none" />
  <path d="M 382 2009.5  A 3 3 0 0 0 379 2012.5 A 3 3 0 0 0 382 2015.5 A 3 3 0 0 0 385 2012.5 A 3 3 0 0 0 382 2009.5 Z " fill-rule="nonzero" fill="#ff3399" stroke="none" />
</svg>