<?xml version="1.0" encoding="utf-8"?>
<svg version="1.1" xmlns:xlink="http://www.w3.org/1999/xlink" width="20px" height="18px" xmlns="http://www.w3.org/2000/svg">
  <g transform="matrix(1 0 0 1 -962 -260 )">
    <path d="M 11.341145833333332 12.292968749999998  C 11.419270833333332 12.363281249999998  11.458333333333332 12.453124999999998  11.458333333333332 12.562500000000002  L 11.458333333333332 14.4375  C 11.458333333333332 14.546875  11.419270833333332 14.63671875  11.341145833333332 14.70703125  C 11.263020833333332 14.77734375  11.163194444444445 14.8125  11.041666666666668 14.8125  L 8.958333333333334 14.8125  C 8.836805555555557 14.8125  8.736979166666666 14.77734375  8.658854166666666 14.70703125  C 8.580729166666666 14.63671875  8.541666666666666 14.546875  8.541666666666666 14.4375  L 8.541666666666666 12.562500000000002  C 8.541666666666666 12.453124999999998  8.580729166666666 12.363281249999998  8.658854166666666 12.292968749999998  C 8.736979166666666 12.222656249999998  8.836805555555557 12.187499999999998  8.958333333333334 12.187499999999998  L 11.041666666666668 12.187499999999998  C 11.163194444444445 12.187499999999998  11.263020833333332 12.222656249999998  11.341145833333332 12.292968749999998  Z M 13.365885416666668 4.236328125  C 14.31640625 4.935546874999999  14.791666666666668 5.773437499999998  14.791666666666668 6.75  C 14.791666666666668 7.140624999999999  14.7265625 7.492187499999999  14.596354166666668 7.8046875  C 14.466145833333332 8.117187499999998  14.268663194444446 8.38671875  14.00390625 8.61328125  C 13.739149305555555 8.839843749999998  13.513454861111114 9.011718750000002  13.326822916666668 9.128906249999998  C 13.140190972222223 9.24609375  12.881944444444446 9.38671875  12.552083333333332 9.550781249999998  C 12.274305555555555 9.691406249999998  12.072482638888891 9.800781249999998  11.946614583333332 9.87890625  C 11.820746527777779 9.957031249999998  11.707899305555555 10.05078125  11.608072916666668 10.16015625  C 11.508246527777779 10.26953125  11.458333333333332 10.382812500000002  11.458333333333332 10.499999999999998  L 11.458333333333332 10.875000000000002  C 11.458333333333332 10.984375  11.419270833333332 11.07421875  11.341145833333332 11.14453125  C 11.263020833333332 11.21484375  11.163194444444445 11.25  11.041666666666668 11.25  L 8.958333333333334 11.25  C 8.836805555555557 11.25  8.736979166666666 11.21484375  8.658854166666666 11.14453125  C 8.580729166666666 11.07421875  8.541666666666666 10.984375  8.541666666666666 10.875000000000002  L 8.541666666666666 10.078124999999998  C 8.541666666666666 9.8046875  8.587239583333334 9.552734374999998  8.678385416666666 9.322265624999998  C 8.76953125 9.091796875  8.873697916666666 8.90625  8.990885416666666 8.765625  C 9.108072916666666 8.625  9.27734375 8.486328124999998  9.498697916666666 8.349609375  C 9.720052083333334 8.212890625  9.898003472222223 8.11328125  10.032552083333332 8.05078125  C 10.167100694444446 7.98828125  10.360243055555555 7.906249999999999  10.611979166666668 7.8046875  C 11.07204861111111 7.609374999999998  11.397569444444445 7.441406250000001  11.588541666666668 7.300781250000001  C 11.779513888888891 7.160156250000001  11.875000000000002 6.96875  11.875 6.726562499999999  C 11.875000000000002 6.398437499999998  11.686197916666668 6.119140624999997  11.30859375 5.888671875  C 10.930989583333336 5.658203124999998  10.516493055555555 5.542968750000001  10.065104166666668 5.542968750000001  C 9.578993055555557 5.542968750000001  9.166666666666666 5.648437500000001  8.828125 5.859375000000001  C 8.57638888888889 6.015624999999999  8.229166666666666 6.339843749999999  7.786458333333334 6.832031249999999  C 7.708333333333334 6.925781249999998  7.599826388888889 6.972656249999999  7.4609375 6.972656249999999  C 7.365451388888889 6.972656249999999  7.282986111111112 6.949218749999998  7.213541666666666 6.902343749999999  L 5.807291666666666 5.94140625  C 5.720486111111112 5.886718749999998  5.668402777777778 5.808593749999998  5.651041666666666 5.707031249999999  C 5.633680555555557 5.605468749999998  5.6553819444444455 5.515624999999999  5.716145833333334 5.437500000000001  C 6.775173611111112 3.9375  8.289930555555557 3.187500000000001  10.260416666666668 3.187500000000001  C 11.380208333333332 3.187500000000001  12.415364583333332 3.537109374999999  13.365885416666668 4.236328125  Z M 13.235677083333332 2.097656250000001  C 12.20703125 1.6992187499999993  11.128472222222223 1.5000000000000007  10 1.5000000000000007  C 8.871527777777779 1.5000000000000007  7.79296875 1.6992187499999993  6.764322916666666 2.097656250000001  C 5.735677083333334 2.49609375  4.850260416666667 3.029296875000001  4.108072916666667 3.697265625000001  C 3.365885416666667 4.365234375000001  2.7734375 5.162109374999999  2.3307291666666665 6.087890625000001  C 1.8880208333333335 7.013671875  1.6666666666666665 7.984374999999999  1.6666666666666665 9  C 1.6666666666666665 10.015625  1.8880208333333335 10.986328125  2.3307291666666665 11.912109375000002  C 2.7734375 12.837890624999998  3.365885416666667 13.634765625  4.108072916666667 14.302734375  C 4.850260416666667 14.970703125  5.735677083333334 15.50390625  6.764322916666666 15.90234375  C 7.79296875 16.30078125  8.871527777777779 16.5  10 16.5  C 11.128472222222223 16.5  12.20703125 16.30078125  13.235677083333332 15.90234375  C 14.264322916666668 15.50390625  15.149739583333332 14.970703125  15.891927083333332 14.302734375  C 16.634114583333332 13.634765625  17.2265625 12.837890624999998  17.669270833333332 11.912109375000002  C 18.111979166666668 10.986328125  18.333333333333332 10.015625  18.333333333333332 9  C 18.333333333333332 7.984374999999999  18.111979166666668 7.013671875  17.669270833333332 6.087890625000001  C 17.2265625 5.162109374999999  16.634114583333332 4.365234375000001  15.891927083333332 3.697265625000001  C 15.149739583333332 3.029296875000001  14.264322916666668 2.49609375  13.235677083333332 2.097656250000001  Z M 18.658854166666668 4.482421875  C 19.552951388888886 5.861328124999998  20 7.367187499999997  20 9  C 20 10.6328125  19.552951388888886 12.138671874999998  18.658854166666668 13.517578125  C 17.764756944444446 14.896484375  16.551649305555557 15.98828125  15.01953125 16.79296875  C 13.487413194444446 17.59765625  11.81423611111111 18  10 18  C 8.18576388888889 18  6.512586805555555 17.59765625  4.98046875 16.79296875  C 3.4483506944444446 15.98828125  2.235243055555556 14.896484375  1.3411458333333335 13.517578125  C 0.44704861111111105 12.138671874999998  0 10.6328125  0 9  C 0 7.367187499999997  0.44704861111111105 5.861328124999998  1.3411458333333335 4.482421875  C 2.235243055555556 3.103515625  3.4483506944444446 2.0117187499999982  4.98046875 1.2070312499999993  C 6.512586805555555 0.40234374999999845  8.18576388888889 0  10 0  C 11.81423611111111 0  13.487413194444446 0.40234374999999845  15.01953125 1.2070312499999993  C 16.551649305555557 2.0117187499999982  17.764756944444446 3.103515625  18.658854166666668 4.482421875  Z " fill-rule="nonzero" fill="#000000" stroke="none" transform="matrix(1 0 0 1 962 260 )" />
  </g>
</svg>